<svg width="270" height="19" viewBox="0 0 270 19" fill="none" xmlns="http://www.w3.org/2000/svg">
<path d="M14.25 17.152L9 13.652L3.75 17.152V4.65201C3.75 3.54701 4.645 2.65201 5.75 2.65201H12.25C13.355 2.65201 14.25 3.54701 14.25 4.65201V17.152Z" stroke="white" stroke-width="1.5" stroke-linecap="round" stroke-linejoin="round"/>
<path d="M122.25 7.65124L117 6.96456L111.75 7.65124V4.65201C111.75 3.54701 112.645 2.65201 113.75 2.65201H120.25C121.355 2.65201 122.25 3.54701 122.25 4.65201V7.65124Z" fill="#0093fd" fill-opacity="0.75" stroke="#0093fd" stroke-width="1.5" stroke-linecap="round" stroke-linejoin="round"/>
<path d="M50.25 13.4644L45 11.8075L39.75 13.4644V4.65201C39.75 3.54701 40.645 2.65201 41.75 2.65201H48.25C49.355 2.65201 50.25 3.54701 50.25 4.65201V13.4644Z" stroke="white" stroke-width="1.5" stroke-linecap="round" stroke-linejoin="round"/>
<path d="M146.793 13.4784L153 10.8316L159.208 13.4784C158.455 12.0803 158.259 10.0418 158.25 4.65201C158.25 3.54701 157.355 2.65201 156.25 2.65201H149.75C148.645 2.65201 147.75 3.54701 147.75 4.65201C147.741 10.0418 147.546 12.0803 146.793 13.4784Z" fill="#0093fd" stroke="#0093fd" stroke-width="1.5" stroke-linecap="round" stroke-linejoin="round"/>
<path d="M86.25 7.57895L81 6.81999L75.75 7.57895V4.65201C75.75 3.54701 76.645 2.65201 77.75 2.65201H84.25C85.355 2.65201 86.25 3.54701 86.25 4.65201V7.57895Z" stroke="white" stroke-width="1.5" stroke-linecap="round" stroke-linejoin="round"/>
<path d="M194.25 16.8591L189 13.3591L183.75 16.8591V4.65201C183.75 3.54701 184.645 2.65201 185.75 2.65201H192.25C193.355 2.65201 194.25 3.54701 194.25 4.65201V16.8591Z" fill="#0093fd" stroke="#0093fd" stroke-width="1.5" stroke-linecap="round" stroke-linejoin="round"/>
<path d="M32.25 14.9583L27 12.7708L21.75 14.9583V4.65201C21.75 3.54701 22.645 2.65201 23.75 2.65201H30.25C31.355 2.65201 32.25 3.54701 32.25 4.65201V14.9583Z" stroke="white" stroke-width="1.5" stroke-linecap="round" stroke-linejoin="round"/>
<path d="M128.782 11.2015L135 9.2053L141.218 11.2015C140.36 8.70414 140.203 7.26322 140.25 4.65201C140.25 3.54701 139.355 2.65201 138.25 2.65201H131.75C130.645 2.65201 129.75 3.54701 129.75 4.65201C129.796 7.26322 129.639 8.70414 128.782 11.2015Z" fill="#0093fd" stroke="#0093fd" stroke-width="1.5" stroke-linecap="round" stroke-linejoin="round"/>
<path d="M68.25 10.4034L63 9.38601L57.75 10.4034V4.65201C57.75 3.54701 58.645 2.65201 59.75 2.65201H66.25C67.355 2.65201 68.25 3.54701 68.25 4.65201V10.4034Z" stroke="white" stroke-width="1.5" stroke-linecap="round" stroke-linejoin="round"/>
<path d="M165.004 15.9217L171 12.4019L176.996 15.9217C176.045 12.7635 176.286 9.77789 176.25 4.65201C176.25 3.54701 175.355 2.65201 174.25 2.65201H167.75C166.645 2.65201 165.75 3.54701 165.75 4.65201C165.714 9.77789 165.955 12.7635 165.004 15.9217Z" fill="#0093fd" stroke="#0093fd" stroke-width="1.5" stroke-linecap="round" stroke-linejoin="round"/>
<path d="M221.197 17.0546L225 13.5546L228.803 17.0546C230.592 13.1135 230.37 10.0008 230.25 4.65201C230.25 3.54701 229.355 2.65201 228.25 2.65201H221.75C220.645 2.65201 219.75 3.54701 219.75 4.65201C219.63 10.0008 219.408 13.1135 221.197 17.0546Z" fill="#0093fd" stroke="#0093fd" stroke-width="1.5" stroke-linecap="round" stroke-linejoin="round"/>
<path d="M104.25 6.27788L99 5.80804L93.75 6.27788V4.65201C93.75 3.54701 94.645 2.65201 95.75 2.65201H102.25C103.355 2.65201 104.25 3.54701 104.25 4.65201V6.27788Z" fill="#0093fd" fill-opacity="0.5" stroke="#0093fd" stroke-width="1.5" stroke-linecap="round" stroke-linejoin="round"/>
<path d="M202.52 16.9357L207 13.4357L211.48 16.9357C212.465 13.4274 212.338 10.1813 212.25 4.65201C212.25 3.54701 211.355 2.65201 210.25 2.65201H203.75C202.645 2.65201 201.75 3.54701 201.75 4.65201C201.662 10.1813 201.535 13.4274 202.52 16.9357Z" fill="#0093fd" stroke="#0093fd" stroke-width="1.5" stroke-linecap="round" stroke-linejoin="round"/>
<path d="M238.52 16.9357L243 13.4357L247.48 16.9357C248.465 13.4274 248.338 10.1813 248.25 4.65201C248.25 3.54701 247.355 2.65201 246.25 2.65201H239.75C238.645 2.65201 237.75 3.54701 237.75 4.65201C237.662 10.1813 237.535 13.4274 238.52 16.9357Z" fill="#0093fd" stroke="#0093fd" stroke-width="1.5" stroke-linecap="round" stroke-linejoin="round"/>
<path d="M266.25 17.152L261 13.652L255.75 17.152V4.65201C255.75 3.54701 256.645 2.65201 257.75 2.65201H264.25C265.355 2.65201 266.25 3.54701 266.25 4.65201V17.152Z" fill="#0093fd" stroke="#0093fd" stroke-width="1.5" stroke-linecap="round" stroke-linejoin="round"/>
</svg>
