<svg width="270" height="18" viewBox="0 0 270 18" fill="none" xmlns="http://www.w3.org/2000/svg">
<path d="M14.25 16.25L9 12.75L3.75 16.25V3.75C3.75 2.645 4.645 1.75 5.75 1.75H12.25C13.355 1.75 14.25 2.645 14.25 3.75V16.25Z" stroke="black" stroke-width="1.5" stroke-linecap="round" stroke-linejoin="round"/>
<path d="M122.25 6.74923L117 6.06255L111.75 6.74923V3.75C111.75 2.645 112.645 1.75 113.75 1.75H120.25C121.355 1.75 122.25 2.645 122.25 3.75V6.74923Z" fill="#1452f0" fill-opacity="0.75" stroke="#1452f0" stroke-width="1.5" stroke-linecap="round" stroke-linejoin="round"/>
<path d="M50.25 12.5623L45 10.9054L39.75 12.5623V3.75C39.75 2.645 40.645 1.75 41.75 1.75H48.25C49.355 1.75 50.25 2.645 50.25 3.75V12.5623Z" stroke="black" stroke-width="1.5" stroke-linecap="round" stroke-linejoin="round"/>
<path d="M146.793 12.5764L153 9.92964L159.208 12.5764C158.455 11.1783 158.259 9.13978 158.25 3.75C158.25 2.645 157.355 1.75 156.25 1.75H149.75C148.645 1.75 147.75 2.645 147.75 3.75C147.741 9.13978 147.546 11.1783 146.793 12.5764Z" fill="#1452f0" stroke="#1452f0" stroke-width="1.5" stroke-linecap="round" stroke-linejoin="round"/>
<path d="M86.25 6.67695L81 5.91798L75.75 6.67695V3.75C75.75 2.645 76.645 1.75 77.75 1.75H84.25C85.355 1.75 86.25 2.645 86.25 3.75V6.67695Z" stroke="black" stroke-width="1.5" stroke-linecap="round" stroke-linejoin="round"/>
<path d="M194.25 15.9571L189 12.4571L183.75 15.9571V3.75C183.75 2.645 184.645 1.75 185.75 1.75H192.25C193.355 1.75 194.25 2.645 194.25 3.75V15.9571Z" fill="#1452f0" stroke="#1452f0" stroke-width="1.5" stroke-linecap="round" stroke-linejoin="round"/>
<path d="M32.25 14.0563L27 11.8688L21.75 14.0563V3.75C21.75 2.645 22.645 1.75 23.75 1.75H30.25C31.355 1.75 32.25 2.645 32.25 3.75V14.0563Z" stroke="black" stroke-width="1.5" stroke-linecap="round" stroke-linejoin="round"/>
<path d="M128.782 10.2995L135 8.30329L141.218 10.2995C140.36 7.80213 140.203 6.36121 140.25 3.75C140.25 2.645 139.355 1.75 138.25 1.75H131.75C130.645 1.75 129.75 2.645 129.75 3.75C129.796 6.36121 129.639 7.80213 128.782 10.2995Z" fill="#1452f0" stroke="#1452f0" stroke-width="1.5" stroke-linecap="round" stroke-linejoin="round"/>
<path d="M68.25 9.50139L63 8.484L57.75 9.50139V3.75C57.75 2.645 58.645 1.75 59.75 1.75H66.25C67.355 1.75 68.25 2.645 68.25 3.75V9.50139Z" stroke="black" stroke-width="1.5" stroke-linecap="round" stroke-linejoin="round"/>
<path d="M165.004 15.0196L171 11.4999L176.996 15.0196C176.045 11.8615 176.286 8.87588 176.25 3.75C176.25 2.645 175.355 1.75 174.25 1.75H167.75C166.645 1.75 165.75 2.645 165.75 3.75C165.714 8.87588 165.955 11.8615 165.004 15.0196Z" fill="#1452f0" stroke="#1452f0" stroke-width="1.5" stroke-linecap="round" stroke-linejoin="round"/>
<path d="M221.197 16.1526L225 12.6526L228.803 16.1526C230.592 12.2115 230.37 9.0988 230.25 3.75C230.25 2.645 229.355 1.75 228.25 1.75H221.75C220.645 1.75 219.75 2.645 219.75 3.75C219.63 9.0988 219.408 12.2115 221.197 16.1526Z" fill="#1452f0" stroke="#1452f0" stroke-width="1.5" stroke-linecap="round" stroke-linejoin="round"/>
<path d="M104.25 5.37587L99 4.90604L93.75 5.37587V3.75C93.75 2.645 94.645 1.75 95.75 1.75H102.25C103.355 1.75 104.25 2.645 104.25 3.75V5.37587Z" fill="#1452f0" fill-opacity="0.5" stroke="#1452f0" stroke-width="1.5" stroke-linecap="round" stroke-linejoin="round"/>
<path d="M202.52 16.0337L207 12.5337L211.48 16.0337C212.465 12.5254 212.338 9.27934 212.25 3.75C212.25 2.645 211.355 1.75 210.25 1.75H203.75C202.645 1.75 201.75 2.645 201.75 3.75C201.662 9.27934 201.535 12.5254 202.52 16.0337Z" fill="#1452f0" stroke="#1452f0" stroke-width="1.5" stroke-linecap="round" stroke-linejoin="round"/>
<path d="M238.52 16.0337L243 12.5337L247.48 16.0337C248.465 12.5254 248.338 9.27934 248.25 3.75C248.25 2.645 247.355 1.75 246.25 1.75H239.75C238.645 1.75 237.75 2.645 237.75 3.75C237.662 9.27934 237.535 12.5254 238.52 16.0337Z" fill="#1452f0" stroke="#1452f0" stroke-width="1.5" stroke-linecap="round" stroke-linejoin="round"/>
<path d="M266.25 16.25L261 12.75L255.75 16.25V3.75C255.75 2.645 256.645 1.75 257.75 1.75H264.25C265.355 1.75 266.25 2.645 266.25 3.75V16.25Z" fill="#1452f0" stroke="#1452f0" stroke-width="1.5" stroke-linecap="round" stroke-linejoin="round"/>
</svg>
