<svg width="240" height="17" viewBox="0 0 240 17" fill="none" xmlns="http://www.w3.org/2000/svg">
<path d="M12.6666 14.6454L7.99992 11.5343L3.33325 14.6454V3.53431C3.33325 2.55209 4.12881 1.75653 5.11103 1.75653H10.8888C11.871 1.75653 12.6666 2.55209 12.6666 3.53431V14.6454Z" stroke="#7b8996" stroke-width="1.33333" stroke-linecap="round" stroke-linejoin="round"/>
<path d="M108.667 6.20029L104 5.58991L99.3333 6.20029V3.53431C99.3333 2.55209 100.129 1.75653 101.111 1.75653H106.889C107.871 1.75653 108.667 2.55209 108.667 3.53431V6.20029Z" fill="#0093fd" fill-opacity="0.75" stroke="#0093fd" stroke-width="1.33333" stroke-linecap="round" stroke-linejoin="round"/>
<path d="M44.6666 11.3675L39.9999 9.89471L35.3333 11.3675V3.53431C35.3333 2.55209 36.1288 1.75653 37.111 1.75653H42.8888C43.871 1.75653 44.6666 2.55209 44.6666 3.53431V11.3675Z" stroke="#7b8996" stroke-width="1.33333" stroke-linecap="round" stroke-linejoin="round"/>
<path d="M130.483 11.38L136 9.02732L141.518 11.38C140.849 10.1372 140.675 8.32522 140.667 3.53431C140.667 2.55209 139.871 1.75653 138.889 1.75653H133.111C132.129 1.75653 131.334 2.55209 131.334 3.53431C131.326 8.32522 131.152 10.1372 130.483 11.38Z" fill="#0093fd" stroke="#0093fd" stroke-width="1.33333" stroke-linecap="round" stroke-linejoin="round"/>
<path d="M76.6666 6.13604L71.9999 5.46141L67.3333 6.13604V3.53431C67.3333 2.55209 68.1288 1.75653 69.111 1.75653H74.8888C75.871 1.75653 76.6666 2.55209 76.6666 3.53431V6.13604Z" stroke="#7b8996" stroke-width="1.33333" stroke-linecap="round" stroke-linejoin="round"/>
<path d="M172.667 14.385L168 11.2739L163.333 14.385V3.53431C163.333 2.55209 164.129 1.75653 165.111 1.75653H170.889C171.871 1.75653 172.667 2.55209 172.667 3.53431V14.385Z" fill="#0093fd" stroke="#0093fd" stroke-width="1.33333" stroke-linecap="round" stroke-linejoin="round"/>
<path d="M28.6666 12.6955L23.9999 10.751L19.3333 12.6955V3.53431C19.3333 2.55209 20.1288 1.75653 21.111 1.75653H26.8888C27.871 1.75653 28.6666 2.55209 28.6666 3.53431V12.6955Z" stroke="#7b8996" stroke-width="1.33333" stroke-linecap="round" stroke-linejoin="round"/>
<path d="M114.473 9.35605L120 7.58168L125.527 9.35605C124.765 7.1362 124.625 5.85538 124.666 3.53431C124.666 2.55209 123.871 1.75653 122.889 1.75653H117.111C116.129 1.75653 115.333 2.55209 115.333 3.53431C115.375 5.85538 115.235 7.1362 114.473 9.35605Z" fill="#0093fd" stroke="#0093fd" stroke-width="1.33333" stroke-linecap="round" stroke-linejoin="round"/>
<path d="M60.6666 8.64665L55.9999 7.74231L51.3333 8.64665V3.53431C51.3333 2.55209 52.1288 1.75653 53.111 1.75653H58.8888C59.871 1.75653 60.6666 2.55209 60.6666 3.53431V8.64665Z" stroke="#7b8996" stroke-width="1.33333" stroke-linecap="round" stroke-linejoin="round"/>
<path d="M146.671 13.5518L152 10.4231L157.33 13.5518C156.484 10.7446 156.699 8.09065 156.667 3.53431C156.667 2.55209 155.871 1.75653 154.889 1.75653H149.111C148.129 1.75653 147.333 2.55209 147.333 3.53431C147.301 8.09065 147.516 10.7446 146.671 13.5518Z" fill="#0093fd" stroke="#0093fd" stroke-width="1.33333" stroke-linecap="round" stroke-linejoin="round"/>
<path d="M196.619 14.5588L200 11.4477L203.381 14.5588C204.971 11.0556 204.774 8.28879 204.667 3.53431C204.667 2.55209 203.871 1.75653 202.889 1.75653H197.111C196.129 1.75653 195.333 2.55209 195.333 3.53431C195.226 8.28879 195.029 11.0556 196.619 14.5588Z" fill="#0093fd" stroke="#0093fd" stroke-width="1.33333" stroke-linecap="round" stroke-linejoin="round"/>
<path d="M92.6666 4.97953L87.9999 4.5619L83.3333 4.97953V3.53431C83.3333 2.55209 84.1288 1.75653 85.111 1.75653H90.8888C91.871 1.75653 92.6666 2.55209 92.6666 3.53431V4.97953Z" fill="#0093fd" fill-opacity="0.5" stroke="#0093fd" stroke-width="1.33333" stroke-linecap="round" stroke-linejoin="round"/>
<path d="M180.018 14.4531L184 11.342L187.982 14.4531C188.858 11.3346 188.745 8.44927 188.667 3.53431C188.667 2.55209 187.871 1.75653 186.889 1.75653H181.111C180.129 1.75653 179.333 2.55209 179.333 3.53431C179.255 8.44927 179.142 11.3346 180.018 14.4531Z" fill="#0093fd" stroke="#0093fd" stroke-width="1.33333" stroke-linecap="round" stroke-linejoin="round"/>
<path d="M212.018 14.4531L216 11.342L219.982 14.4531C220.858 11.3346 220.745 8.44927 220.667 3.53431C220.667 2.55209 219.871 1.75653 218.889 1.75653H213.111C212.129 1.75653 211.333 2.55209 211.333 3.53431C211.255 8.44927 211.142 11.3346 212.018 14.4531Z" fill="#0093fd" stroke="#0093fd" stroke-width="1.33333" stroke-linecap="round" stroke-linejoin="round"/>
<path d="M236.667 14.6454L232 11.5343L227.333 14.6454V3.53431C227.333 2.55209 228.129 1.75653 229.111 1.75653H234.889C235.871 1.75653 236.667 2.55209 236.667 3.53431V14.6454Z" fill="#0093fd" stroke="#0093fd" stroke-width="1.33333" stroke-linecap="round" stroke-linejoin="round"/>
</svg>

